<svg width="640" height="519" viewBox="0 0 640 519" fill="none" xmlns="http://www.w3.org/2000/svg">
<path d="M542.928 94.5371C539.603 131.163 530.132 169.782 515.278 207.045C496.908 253.126 471.811 293.713 442.699 324.42L441.083 323.011C470.055 292.452 495.038 252.044 513.33 206.154C529.862 164.684 539.695 121.529 541.779 81.372L543.844 81.7176C543.625 85.9587 543.32 90.2318 542.928 94.5371Z" fill="#616363"/>
<path d="M556.169 307.252C515.279 372.296 465.67 418.77 416.481 438.112L415.486 436.288C464.335 417.08 513.653 370.843 554.357 306.097L556.169 307.252Z" fill="#616363"/>
<path d="M541.936 140.137C538.611 176.763 529.139 215.383 514.285 252.646C495.916 298.726 470.819 339.314 441.706 370.02L440.091 368.612C469.062 338.053 494.045 297.644 512.338 251.755C528.87 210.285 538.703 167.129 540.787 126.972L542.851 127.318C542.632 131.559 542.327 135.832 541.936 140.137Z" fill="#616363"/>
<path d="M82.8897 234.167H56.0607C55.4875 234.168 54.9214 234.039 54.405 233.79C53.8886 233.542 53.4352 233.179 53.0789 232.73C52.7268 232.293 52.4785 231.781 52.3524 231.234C52.2264 230.687 52.2259 230.119 52.351 229.571C54.9062 218.298 54.7457 206.58 51.8827 195.381C51.7016 194.643 51.7454 193.869 52.0084 193.156C52.2714 192.444 52.7417 191.827 53.3585 191.384C67.1541 181.464 78.0185 181.752 85.6503 192.241C85.9943 192.719 86.2228 193.271 86.318 193.852C88.3571 206.109 88.4699 218.609 86.6524 230.901C86.5261 231.808 86.0753 232.639 85.3835 233.239C84.6917 233.84 83.8057 234.169 82.8897 234.167Z" fill="white"/>
<path d="M74.572 207.303H65.3427C64.8324 207.303 64.3429 207.101 63.982 206.74C63.6212 206.379 63.4185 205.89 63.4185 205.379C63.4185 204.869 63.6212 204.38 63.982 204.019C64.3429 203.658 64.8324 203.455 65.3427 203.455H74.572C75.0816 203.457 75.57 203.66 75.93 204.02C76.2901 204.381 76.4922 204.87 76.4922 205.379C76.4922 205.889 76.2901 206.378 75.93 206.739C75.57 207.099 75.0816 207.302 74.572 207.303Z" fill="#616363"/>
<path d="M74.572 214.051H65.3427C64.8324 214.051 64.3429 213.848 63.982 213.488C63.6212 213.127 63.4185 212.637 63.4185 212.127C63.4185 211.617 63.6212 211.127 63.982 210.767C64.3429 210.406 64.8324 210.203 65.3427 210.203H74.572C75.0816 210.204 75.57 210.407 75.93 210.768C76.2901 211.129 76.4922 211.618 76.4922 212.127C76.4922 212.637 76.2901 213.125 75.93 213.486C75.57 213.847 75.0816 214.05 74.572 214.051Z" fill="#616363"/>
<path d="M74.572 220.799H65.3427C64.8324 220.799 64.3429 220.596 63.982 220.235C63.6212 219.874 63.4185 219.385 63.4185 218.875C63.4185 218.365 63.6212 217.875 63.982 217.514C64.3429 217.154 64.8324 216.951 65.3427 216.951H74.572C75.0816 216.952 75.57 217.155 75.93 217.516C76.2901 217.876 76.4922 218.365 76.4922 218.875C76.4922 219.384 76.2901 219.873 75.93 220.234C75.57 220.595 75.0816 220.798 74.572 220.799Z" fill="#616363"/>
<path d="M570.48 353.937H543.651C543.078 353.938 542.512 353.81 541.995 353.561C541.479 353.312 541.025 352.95 540.669 352.501C540.317 352.064 540.069 351.552 539.942 351.005C539.816 350.458 539.816 349.889 539.941 349.342C542.496 338.069 542.336 326.35 539.473 315.151C539.292 314.414 539.335 313.639 539.598 312.927C539.862 312.215 540.332 311.598 540.949 311.155C554.744 301.234 565.609 301.522 573.24 312.012C573.584 312.49 573.813 313.041 573.908 313.623C575.947 325.88 576.06 338.38 574.243 350.672C574.116 351.579 573.665 352.41 572.974 353.01C572.282 353.61 571.396 353.94 570.48 353.937Z" fill="white"/>
<path d="M562.162 327.074H552.933C552.423 327.073 551.935 326.87 551.575 326.509C551.215 326.148 551.013 325.66 551.013 325.15C551.013 324.641 551.215 324.152 551.575 323.791C551.935 323.43 552.423 323.227 552.933 323.226H562.162C562.673 323.226 563.162 323.429 563.523 323.79C563.884 324.15 564.086 324.64 564.086 325.15C564.086 325.66 563.884 326.15 563.523 326.511C563.162 326.871 562.673 327.074 562.162 327.074Z" fill="#616363"/>
<path d="M562.162 333.822H552.933C552.423 333.821 551.935 333.617 551.575 333.257C551.215 332.896 551.013 332.407 551.013 331.898C551.013 331.388 551.215 330.899 551.575 330.539C551.935 330.178 552.423 329.975 552.933 329.974H562.162C562.673 329.974 563.162 330.176 563.523 330.537C563.884 330.898 564.086 331.387 564.086 331.898C564.086 332.408 563.884 332.897 563.523 333.258C563.162 333.619 562.673 333.822 562.162 333.822Z" fill="#616363"/>
<path d="M562.162 340.569H552.933C552.423 340.568 551.935 340.365 551.575 340.004C551.215 339.644 551.013 339.155 551.013 338.645C551.013 338.136 551.215 337.647 551.575 337.286C551.935 336.926 552.423 336.722 552.933 336.721H562.162C562.673 336.721 563.162 336.924 563.523 337.285C563.884 337.646 564.086 338.135 564.086 338.645C564.086 339.156 563.884 339.645 563.523 340.006C563.162 340.367 562.673 340.569 562.162 340.569Z" fill="#616363"/>
<path d="M608 518C608 518.131 607.977 518.262 607.932 518.383C607.887 518.505 607.82 518.615 607.736 518.708C607.652 518.801 607.552 518.875 607.443 518.925C607.333 518.975 607.215 519 607.096 519H32.9035C32.6639 519 32.4341 518.895 32.2646 518.707C32.0952 518.52 32 518.265 32 518C32 517.735 32.0952 517.48 32.2646 517.293C32.4341 517.105 32.6639 517 32.9035 517H607.097C607.215 517 607.333 517.025 607.443 517.075C607.552 517.125 607.652 517.199 607.736 517.292C607.82 517.385 607.887 517.495 607.932 517.617C607.977 517.738 608 517.869 608 518Z" fill="#CCCCCC"/>
<path d="M200.298 456.542L198.624 433.272C187.663 427.794 175.53 425.073 163.279 425.347C180.515 438.668 179.134 465.291 191.071 483.512C194.838 489.166 199.828 493.9 205.674 497.364C211.519 500.827 218.069 502.931 224.838 503.52L239.182 511.771C240.823 500.927 240.093 489.857 237.043 479.323C233.993 468.788 228.695 459.04 221.514 450.75C217.439 446.14 212.8 442.06 207.706 438.608C204.571 447.609 200.298 456.542 200.298 456.542Z" fill="#616363"/>
<path d="M503.702 459.916L505.376 436.646C516.337 431.168 528.47 428.447 540.721 428.721C523.485 442.042 524.866 468.665 512.929 486.886C509.162 492.54 504.172 497.274 498.326 500.738C492.481 504.201 485.931 506.305 479.162 506.894L464.818 515.145C463.177 504.301 463.907 493.231 466.957 482.697C470.007 472.162 475.305 462.414 482.486 454.124C486.561 449.513 491.2 445.434 496.294 441.982C499.429 450.983 503.702 459.916 503.702 459.916Z" fill="#616363"/>
<path d="M344.408 197.32C353.26 197.32 360.436 190.145 360.436 181.294C360.436 172.443 353.26 165.269 344.408 165.269C335.556 165.269 328.38 172.443 328.38 181.294C328.38 190.145 335.556 197.32 344.408 197.32Z" fill="#003D6D"/>
<path d="M352.636 174.615C352.394 174.385 352.074 174.257 351.741 174.257C351.408 174.257 351.087 174.385 350.846 174.615C347.445 177.327 344.39 180.447 341.751 183.904C341.103 182.65 340.455 181.397 339.807 180.143C339.059 178.696 336.874 179.974 337.621 181.42C338.569 183.254 339.517 185.088 340.465 186.921C340.579 187.109 340.74 187.263 340.931 187.371C341.123 187.478 341.338 187.534 341.558 187.534C341.777 187.534 341.993 187.478 342.184 187.371C342.375 187.263 342.536 187.109 342.65 186.921C345.463 182.96 348.825 179.419 352.636 176.404C352.871 176.166 353.003 175.845 353.003 175.51C353.003 175.175 352.871 174.853 352.636 174.615Z" fill="white"/>
<path d="M272.69 226.737L248.521 188.785L276.509 173.798L283.855 202.754L335.613 230.719C337.656 229.983 339.869 229.858 341.983 230.359C344.096 230.86 346.018 231.964 347.514 233.538C349.01 235.112 350.016 237.087 350.409 239.223C350.802 241.358 350.565 243.562 349.727 245.565C348.889 247.568 347.486 249.285 345.689 250.504C343.892 251.724 341.779 252.395 339.608 252.435C337.437 252.475 335.301 251.882 333.46 250.729C331.62 249.576 330.155 247.913 329.244 245.942L272.69 226.737Z" fill="#A0616A"/>
<path d="M230.862 143.266C223.268 154.414 250.256 194.938 250.256 194.938C251.571 192.105 264.139 223.924 266.244 222.045C272.226 216.702 281.592 201.822 286.798 201.158C289.775 200.779 279.893 179.668 279.893 179.668C279.893 179.668 275.377 167.203 269.249 151.279C267.6 146.745 264.83 142.702 261.198 139.526C257.565 136.35 253.189 134.144 248.474 133.115C248.474 133.115 238.456 132.117 230.862 143.266Z" fill="#19CCC0"/>
<path d="M231.233 506.487L242.711 506.486L248.172 462.218L231.23 462.218L231.233 506.487Z" fill="#A0616A"/>
<path d="M228.304 502.74L231.535 502.74L244.149 497.61L250.91 502.739H250.911C254.732 502.739 258.396 504.257 261.098 506.958C263.799 509.659 265.317 513.323 265.317 517.143V517.611L228.305 517.612L228.304 502.74Z" fill="#2F2E41"/>
<path d="M284.561 506.487L296.039 506.486L301.501 462.218L284.559 462.218L284.561 506.487Z" fill="#A0616A"/>
<path d="M281.633 502.74L284.864 502.74L297.478 497.61L304.239 502.739H304.239C308.06 502.739 311.724 504.257 314.426 506.958C317.128 509.659 318.645 513.323 318.646 517.143V517.611L281.633 517.612L281.633 502.74Z" fill="#2F2E41"/>
<path d="M289.529 264.467L214.866 266.333C200.686 274.034 200.471 290.701 205.117 310.49C205.117 310.49 203.549 322.252 206.686 325.388C209.822 328.525 211.391 328.525 209.822 334.014C208.254 339.502 216.541 348.467 215.534 349.474C214.528 350.48 212.175 355.969 212.175 355.969L220.018 400.664C220.018 400.664 225.507 478.292 227.076 479.86C228.644 481.429 230.213 479.86 228.644 483.781C227.076 487.702 225.507 486.133 227.076 487.702C228.465 489.199 229.774 490.77 230.997 492.406H249.958C249.958 492.406 251.387 484.565 251.387 483.781C251.387 482.997 252.956 478.292 252.956 477.508C252.956 476.724 251.569 475.338 251.569 475.338C251.09 473.744 250.767 472.107 250.603 470.451C250.603 468.883 245.898 408.505 245.898 408.505L255.308 330.093L278.051 406.937C278.051 406.937 278.051 474.372 279.62 475.94C281.188 477.508 281.188 476.724 280.404 479.86C279.62 482.997 276.483 482.213 278.836 484.565C281.188 486.918 281.973 482.997 281.188 486.918L280.404 490.838L303.931 491.175C303.931 491.175 307.068 484.565 305.5 482.213C303.931 479.86 304.025 480.503 305.939 476.653C307.853 472.803 308.637 472.019 307.853 471.235C307.068 470.451 307.068 466.28 307.068 466.28L303.147 391.255C303.147 391.255 302.363 312.058 302.363 309.706C302.304 308.495 302.527 307.288 303.014 306.178V302.985L300.01 291.671L289.529 264.467Z" fill="#131516"/>
<path d="M244.678 109.24C257.49 109.24 267.876 98.8553 267.876 86.0452C267.876 73.2351 257.49 62.8505 244.678 62.8505C231.866 62.8505 221.48 73.2351 221.48 86.0452C221.48 98.8553 231.866 109.24 244.678 109.24Z" fill="#A0616A"/>
<path d="M256.277 124.57C261.275 127.541 264.265 132.999 265.981 138.553C269.158 148.837 271.071 159.469 271.676 170.214L273.489 202.385L295.939 270.885C276.482 287.346 203.348 274.626 203.348 274.626C203.348 274.626 201.103 273.878 203.348 271.633C205.593 269.388 207.778 271.377 205.534 269.132C203.289 266.888 204.836 269.389 205.584 267.144C206.333 264.899 205.584 266.396 204.836 265.647C204.088 264.899 210.629 258.165 210.629 258.165L204.643 218.845L197.159 139.534C206.139 128.311 224.199 121.695 224.199 121.695L228.866 113.297L252.198 115.163L256.277 124.57Z" fill="#22AAA1"/>
<path d="M263.802 73.7223C265.605 75.0668 266.94 76.943 267.621 79.0865C267.882 75.5835 267.899 72.0665 267.671 68.5612C267.397 66.0981 265.663 65.544 263.654 64.902C261.841 64.322 259.79 63.6668 259.238 61.2756C251.946 54.1827 239.251 54.5403 230.564 57.0145C225.783 58.3759 223.033 60.1251 222.787 61.1498L222.736 61.3608L222.541 61.4578C218.857 63.3 218.139 69.1171 218.187 73.6726C218.276 82.2555 221.24 92.0034 222.91 92.7953C222.999 92.8372 223.021 92.8208 223.059 92.7889C225.573 90.78 228.641 92.9416 229.989 94.1167C230.784 88.7823 233.344 83.8681 237.26 80.1591C241.176 76.45 246.222 74.1601 251.592 73.6549C253.346 73.4854 255.086 73.1937 256.799 72.7819C257.668 72.5571 258.562 72.4399 259.459 72.4329C261.004 72.4094 262.52 72.8594 263.802 73.7223Z" fill="#2F2E41"/>
<path d="M407.813 282.949L452.438 237.64L464.195 201.402L445.275 193.751C435.903 203.203 426.255 232.141 426.255 232.141L395.797 273.013C395.554 273.103 395.311 273.199 395.072 273.312C393.67 273.974 392.462 274.986 391.566 276.252C390.669 277.517 390.114 278.992 389.954 280.534C389.794 282.076 390.035 283.633 390.653 285.056C391.271 286.478 392.246 287.716 393.482 288.652C394.719 289.587 396.176 290.188 397.713 290.395C399.25 290.603 400.814 290.411 402.255 289.838C403.696 289.265 404.964 288.329 405.938 287.122C406.912 285.916 407.558 284.478 407.813 282.949Z" fill="#FFB8B8"/>
<path d="M440.114 197.896L464.041 204.817L464.13 204.799C472.925 203.092 479.882 188.478 484.169 176.52C485.58 172.575 485.44 168.243 483.777 164.397C482.115 160.552 479.055 157.482 475.215 155.806C472.374 154.59 469.249 154.192 466.194 154.658C463.139 155.123 460.275 156.434 457.926 158.442L445.996 168.713L440.114 197.896Z" fill="#6C63FF"/>
<path d="M419.643 505.141L406.775 505.14L400.654 455.515L419.645 455.516L419.643 505.141Z" fill="#FFB8B8"/>
<path d="M422.926 500.94L419.304 500.94L405.164 495.19L397.585 500.939H397.584C393.301 500.939 389.193 502.641 386.165 505.669C383.136 508.697 381.435 512.804 381.434 517.086V517.611L422.925 517.612L422.926 500.94Z" fill="#2F2E41"/>
<path d="M476.739 505.141L463.872 505.14L457.75 455.515L476.742 455.516L476.739 505.141Z" fill="#FFB8B8"/>
<path d="M480.022 500.94L476.4 500.94L462.26 495.19L454.681 500.939H454.68C450.397 500.939 446.289 502.641 443.261 505.669C440.232 508.697 438.531 512.804 438.531 517.086V517.611L480.021 517.612L480.022 500.94Z" fill="#2F2E41"/>
<path d="M496.36 291.388C496.36 291.388 497.863 309.416 494.107 326.692C490.35 343.969 490.35 392.625 490.35 392.625L482.086 487.439L457.295 485.186L450.533 326.692L426.493 380.024L428.746 387.536L425.744 389.414C425.744 389.414 427.995 404.061 426.493 404.061C424.99 404.061 421.234 406.314 421.234 406.314L424.239 483.683L398.696 482.932L389.681 374.015L399.447 311.669L400.198 299.651L403.579 299.79L405.3 294.768L408.462 286.13L496.36 291.388Z" fill="#131516"/>
<path d="M497.659 295.175L497.793 294.987C504.944 284.977 494.189 260.923 492.567 257.436L499.399 255.219L497.86 242.143L497.131 236.314L502.353 231.093L502.368 230.963L505.373 204.672L509.742 187.21C511.389 180.609 511.248 173.689 509.336 167.16C507.423 160.631 503.808 154.728 498.86 150.058L488.76 140.537L476.486 122.378H456.693L449.906 135.196C443.326 136.716 437.488 140.496 433.409 145.878C429.33 151.26 427.269 157.901 427.584 164.646L429.122 198.262L423.101 240.117L423.097 247.692L416.321 255.221L417.801 262.619L412.643 264.829L410.366 275.454C409.424 276.697 403.203 284.99 403.203 287.257C403.203 287.597 403.455 287.926 403.994 288.291C408.233 291.161 431.663 297.012 442.033 292.863C453.079 288.447 496.988 295.072 497.431 295.139L497.659 295.175Z" fill="#003D6D"/>
<path d="M464.032 116.517C478.51 116.517 490.246 104.782 490.246 90.3066C490.246 75.8313 478.51 64.0967 464.032 64.0967C449.555 64.0967 437.818 75.8313 437.818 90.3066C437.818 104.782 449.555 116.517 464.032 116.517Z" fill="#FFB8B8"/>
<path d="M461.521 116.941C465.581 116.9 469.629 116.511 473.623 115.781C477.577 114.87 486.3 108.126 488.677 104.142C490.444 101.181 491.504 96.6026 492.082 93.2829C492.863 88.8896 492.713 84.3812 491.64 80.0497C490.568 75.7182 488.598 71.6601 485.857 68.1384C484.801 66.663 483.365 65.5005 481.702 64.774C481.555 64.7208 481.404 64.6742 481.251 64.635C478.841 64.0669 476.655 62.7914 474.975 60.9723C474.649 60.604 474.296 60.2597 473.921 59.942C472.036 58.4331 469.82 57.3915 467.456 56.9026C463.635 55.9853 458.171 57.1348 451.214 60.322C447.719 61.9234 443.839 61.4766 440.849 60.9085C440.682 60.8806 440.51 60.8971 440.351 60.9563C440.191 61.0155 440.05 61.1153 439.942 61.2459C438.707 62.466 437.057 63.1738 435.322 63.2269C434.26 63.301 433.183 64.8011 431.885 66.7545C431.59 67.1979 431.247 67.7155 430.997 68.0313L430.947 67.4382L430.363 68.1163C429.445 69.1821 428.812 70.4629 428.522 71.8394C428.232 73.2159 428.296 74.6433 428.706 75.9887C429.117 77.3341 429.861 78.5537 430.87 79.534C431.879 80.5144 433.12 81.2234 434.477 81.5953C435.553 81.8521 436.653 81.9983 437.759 82.0317C438.429 82.0746 439.123 82.119 439.789 82.217C441.929 82.5978 443.934 83.5269 445.607 84.9136C447.28 86.3003 448.566 88.0971 449.337 90.1287C449.519 90.5981 449.807 91.0195 450.178 91.3602C450.549 91.7009 450.993 91.9518 451.476 92.0936C451.96 92.2354 452.469 92.2642 452.965 92.1779C453.461 92.0916 453.931 91.8924 454.338 91.5957C455.015 91.04 455.816 90.6563 456.674 90.4772C457.531 90.2981 458.419 90.329 459.262 90.5673C459.995 90.9504 460.574 91.5738 460.902 92.333C461.298 93.178 461.937 93.8857 462.738 94.366C465.467 95.6849 465.811 101.831 464.977 106.983C464.172 111.95 462.421 115.573 460.719 115.794C459.409 115.963 459.261 116.061 459.172 116.295L459.092 116.506L459.245 116.696C459.977 116.941 460.753 117.024 461.521 116.941Z" fill="#2F2E41"/>
<path d="M439.773 200.699L427.172 184.647C414.338 188.181 391.564 208.477 391.564 208.477L344.794 228.77C343.233 228.507 341.631 228.661 340.148 229.215C338.665 229.769 337.354 230.703 336.348 231.925C335.341 233.146 334.674 234.611 334.414 236.172C334.153 237.733 334.309 239.335 334.864 240.817C335.42 242.299 336.356 243.608 337.579 244.613C338.802 245.618 340.268 246.284 341.829 246.542C343.391 246.801 344.993 246.643 346.475 246.086C347.956 245.529 349.265 244.591 350.268 243.367L411.535 226.277L439.773 200.699Z" fill="#FFB8B8"/>
<path d="M436.753 204.369L456.634 182.209L457.738 166.508C457.944 163.424 457.282 160.345 455.829 157.618C454.376 154.89 452.189 152.624 449.516 151.074C445.877 148.997 441.585 148.38 437.509 149.346C433.432 150.312 429.875 152.79 427.555 156.279C420.53 166.865 412.973 181.177 416.862 189.247L416.901 189.329L436.753 204.369Z" fill="#035291"/>
<path d="M253.507 287.66L201.834 261.2C198.158 259.318 196.941 254.326 199.12 250.072L232.812 184.296C234.991 180.042 239.754 178.112 243.43 179.994L295.103 206.454C298.778 208.337 299.996 213.329 297.817 217.583L264.125 283.359C261.946 287.613 257.183 289.542 253.507 287.66Z" fill="#E6E6E6"/>
<path d="M244.678 275.496L209.571 257.519C206.128 255.756 204.988 251.081 207.029 247.097L235.019 192.451C237.06 188.467 241.521 186.66 244.964 188.423L287.366 210.136C290.808 211.898 291.949 216.574 289.908 220.558L274.702 250.244C265.611 267.991 260.011 283.348 244.678 275.496Z" fill="white"/>
<path d="M262.036 245.654L230.94 229.731C230.56 229.46 230.29 229.062 230.18 228.608C230.069 228.155 230.125 227.677 230.338 227.261C230.551 226.846 230.906 226.521 231.339 226.345C231.771 226.17 232.253 226.156 232.695 226.306L263.79 242.23C264.17 242.5 264.441 242.899 264.551 243.352C264.662 243.806 264.606 244.284 264.393 244.7C264.18 245.115 263.825 245.44 263.392 245.615C262.959 245.791 262.478 245.805 262.036 245.654Z" fill="#616363"/>
<path d="M234.571 240.132L227.474 236.498C227.094 236.227 226.824 235.828 226.714 235.375C226.603 234.921 226.659 234.443 226.872 234.028C227.085 233.612 227.44 233.287 227.873 233.112C228.305 232.937 228.787 232.923 229.229 233.073L236.325 236.707C236.705 236.978 236.975 237.376 237.086 237.83C237.197 238.283 237.14 238.761 236.928 239.177C236.715 239.592 236.36 239.917 235.927 240.093C235.494 240.268 235.013 240.282 234.571 240.132Z" fill="#616363"/>
<path d="M243.673 253.334L224.008 243.264C223.628 242.993 223.358 242.595 223.248 242.141C223.137 241.688 223.193 241.21 223.406 240.794C223.619 240.379 223.974 240.054 224.407 239.878C224.839 239.703 225.321 239.689 225.763 239.839L245.428 249.909C245.808 250.18 246.078 250.579 246.188 251.032C246.299 251.486 246.243 251.964 246.03 252.379C245.817 252.795 245.462 253.12 245.029 253.295C244.597 253.47 244.115 253.484 243.673 253.334V253.334Z" fill="#616363"/>
<path d="M274.341 221.631L243.246 205.708C242.865 205.437 242.595 205.039 242.485 204.585C242.374 204.132 242.43 203.653 242.643 203.238C242.856 202.822 243.211 202.497 243.644 202.322C244.077 202.147 244.558 202.133 245 202.283L276.096 218.206C276.476 218.477 276.746 218.876 276.856 219.329C276.967 219.783 276.911 220.261 276.698 220.676C276.485 221.092 276.13 221.417 275.697 221.592C275.265 221.768 274.783 221.781 274.341 221.631Z" fill="#616363"/>
<path d="M246.876 216.108L239.78 212.475C239.4 212.204 239.129 211.805 239.019 211.352C238.908 210.898 238.965 210.42 239.177 210.004C239.39 209.589 239.745 209.264 240.178 209.089C240.611 208.913 241.092 208.899 241.534 209.05L248.63 212.683C249.011 212.954 249.281 213.353 249.391 213.806C249.502 214.26 249.446 214.738 249.233 215.154C249.02 215.569 248.665 215.894 248.232 216.069C247.799 216.245 247.318 216.259 246.876 216.108Z" fill="#616363"/>
<path d="M255.979 229.311L236.314 219.241C235.934 218.97 235.664 218.572 235.553 218.118C235.442 217.665 235.499 217.186 235.711 216.771C235.924 216.355 236.279 216.03 236.712 215.855C237.145 215.68 237.626 215.666 238.068 215.816L257.733 225.886C258.113 226.157 258.383 226.555 258.494 227.009C258.604 227.462 258.548 227.941 258.335 228.356C258.123 228.772 257.767 229.097 257.335 229.272C256.902 229.447 256.421 229.461 255.979 229.311L255.979 229.311Z" fill="#616363"/>
<path d="M210.688 230.396L199.014 186.944L230.209 181.039L228.532 210.865L269.519 253.062C271.689 252.974 273.838 253.518 275.704 254.629C277.57 255.741 279.072 257.371 280.027 259.321C280.982 261.271 281.349 263.457 281.084 265.612C280.818 267.767 279.931 269.798 278.53 271.458C277.13 273.118 275.277 274.334 273.197 274.959C271.117 275.584 268.9 275.59 266.817 274.977C264.734 274.364 262.874 273.158 261.464 271.506C260.054 269.854 259.155 267.828 258.877 265.675L210.688 230.396Z" fill="#A0616A"/>
<path d="M195.822 138.224C185.233 146.582 198.824 193.334 198.824 193.334C200.928 191.025 203.373 225.148 205.945 223.987C213.255 220.684 226.653 209.297 231.818 210.225C234.772 210.756 231.677 187.654 231.677 187.654C231.677 187.654 231.108 174.408 230.038 157.379C229.825 152.559 228.396 147.872 225.883 143.753C223.371 139.634 219.857 136.218 215.669 133.822C215.669 133.822 206.411 129.866 195.822 138.224Z" fill="#00D5C6"/>
<path d="M372.009 326.842L343.811 313.529C343.208 313.246 342.677 312.83 342.258 312.312C341.838 311.795 341.542 311.189 341.39 310.54C341.237 309.906 341.23 309.245 341.369 308.607C341.508 307.97 341.79 307.372 342.193 306.859C350.361 296.421 355.97 284.215 358.57 271.219C358.766 270.224 359.302 269.328 360.085 268.684C360.868 268.039 361.851 267.686 362.865 267.685C377.247 267.734 387.995 272.984 394.81 283.288C395.169 283.824 395.408 284.432 395.508 285.07C395.608 285.707 395.568 286.359 395.391 286.979C391.444 300.579 385.439 313.494 377.584 325.277C377.001 326.168 376.115 326.818 375.09 327.105C374.065 327.393 372.97 327.3 372.009 326.842Z" fill="white"/>
<path d="M380.304 308.17L358.743 297.99C358.207 297.737 357.793 297.281 357.593 296.723C357.393 296.165 357.423 295.55 357.676 295.013C357.929 294.477 358.385 294.063 358.944 293.863C359.502 293.663 360.117 293.693 360.654 293.946L382.214 304.126C382.479 304.251 382.718 304.427 382.915 304.645C383.113 304.862 383.265 305.117 383.364 305.393C383.463 305.669 383.507 305.963 383.493 306.256C383.479 306.549 383.407 306.837 383.281 307.103C383.156 307.368 382.979 307.606 382.762 307.804C382.544 308.001 382.29 308.154 382.014 308.253C381.737 308.352 381.444 308.396 381.15 308.381C380.857 308.367 380.569 308.295 380.304 308.17H380.304Z" fill="#616363"/>
<path d="M383.653 301.078L362.093 290.898C361.556 290.645 361.143 290.189 360.942 289.631C360.742 289.073 360.772 288.458 361.025 287.921C361.279 287.385 361.735 286.971 362.293 286.771C362.851 286.571 363.466 286.601 364.003 286.854L385.563 297.034C386.1 297.287 386.513 297.743 386.714 298.301C386.914 298.859 386.884 299.474 386.631 300.011C386.377 300.547 385.921 300.961 385.363 301.161C384.805 301.361 384.19 301.331 383.653 301.078V301.078Z" fill="#616363"/>
<path d="M354.844 78.454L352.837 78.6738C343.889 43.515 326.544 19.1573 302.676 8.23355C272.334 -5.65242 234.816 3.67227 197.031 34.4903C159.054 65.4657 125.435 114.393 102.367 172.263L100.419 171.372C123.589 113.25 157.381 64.0855 195.57 32.9379C233.951 1.6329 272.236 -7.76017 303.371 6.48939C327.924 17.7261 345.722 42.6112 354.844 78.454Z" fill="#616363"/>
<path d="M133.425 124.244C128.177 135.299 123.185 146.752 118.588 158.284C92.1324 224.649 78.7261 292.425 79.8216 354.289L77.754 354.068C76.6573 291.975 90.1023 223.965 116.64 157.393C121.251 145.828 126.257 134.343 131.521 123.257L133.425 124.244Z" fill="#616363"/>
<path d="M132.433 169.844C127.185 180.899 122.193 192.352 117.595 203.884C91.1401 270.249 77.7338 338.026 78.8293 399.889L76.7617 399.669C75.665 337.575 89.11 269.565 115.648 202.993C120.258 191.428 125.265 179.943 130.528 168.857L132.433 169.844Z" fill="#616363"/>
<path d="M76.861 186.428C79.1466 182.993 77.7938 178.076 73.8393 175.446C69.8849 172.815 64.8263 173.467 62.5407 176.902C60.2551 180.337 61.6079 185.254 65.5624 187.885C69.5168 190.515 74.5754 189.863 76.861 186.428Z" fill="#003D6D"/>
<path d="M563.559 310.474C565.844 307.039 564.491 302.122 560.537 299.492C556.583 296.861 551.524 297.514 549.238 300.948C546.953 304.383 548.306 309.3 552.26 311.931C556.214 314.561 561.273 313.909 563.559 310.474Z" fill="#003D6D"/>
</svg>
